<svg xmlns="http://www.w3.org/2000/svg" xmlns:xlink="http://www.w3.org/1999/xlink" viewBox="0 0 158 141" width="158" height="141">
	<!-- <style type="text/css">
		.graph_blue{fill:#44BFFB;}
		.graph_orange{fill:#FF920B;}
		.graph_green{fill:#70DF00;}
		.graph_white{fill:#FFFFFF;}
		.graph_text{fill:#414347;}
		</style> -->
	<defs>
		<linearGradient id="gradient_blue" x1="0" x2="0" y1="0" y2="1">
			<stop offset="0%" stop-color="#55c7ff"></stop>
			<stop offset="100%" stop-color="#0083f5"></stop>
		</linearGradient>
		<linearGradient id="gradient_orange" x1="0" x2="0" y1="0" y2="1">
			<stop offset="0%" stop-color="#ffbb00"></stop>
			<stop offset="100%" stop-color="#ff7405"></stop>
		</linearGradient>
		<linearGradient id="gradient_green" x1="0" x2="0" y1="0" y2="1">
			<stop offset="0%" stop-color="#affa23"></stop>
			<stop offset="100%" stop-color="#63bc0a"></stop>
		</linearGradient>
	</defs>
	<defs>
		<symbol id="graph_blue">
			<path d="M33.1,10.9c-7.7-5.5-14.6-8.5-18.6-9.7C12,0.4,10.1,0.8,8.9,2.5c-1.5,2.1-2,10.9-2.1,15.1 c-0.1,4.6,0.1,9.3,0.7,13.1c0.8,4.1,4.3,4.4,7.6,3.4c8.1-2.3,16.4-8.9,21-13.3C40,17.2,38.7,14.9,33.1,10.9z"/>
		</symbol>
		<symbol id="graph_orange">
			<path d="M7.1,15.6c0-6,0.6-9.2,1.1-10.9c-2.1-0.5-4-0.4-5,1c-1.2,1.7-2,8.3-2,11.6c0.1,3.6,0.4,7.2,0.9,10.2 c0.8,3.4,2.5,3.7,5.4,3.1C7.2,28.3,7,24,7.1,15.6z"/>
		</symbol>
		<symbol id="graph_green">
			<path d="M26.5,12.7C15.3,6,8,4.4,8.1,4.4C7,8.2,6.6,14.5,6.6,17.6c0,4.3,0.2,9.2,0.8,12.9c0,0,10.3-1.1,21.8-10.1 C32.7,17.7,30.7,15.3,26.5,12.7z"/>
		</symbol>
		<symbol id="graph_white">
			<path d="M11.176,12.046c0,0-0.35,0.55-0.35,5.381c0,4.841,0.35,5.431,0.35,5.431c0.12,0.6,0.37,0.789,1.01,0.639  c0,0,1.07-0.17,5.37-2.369c4.3-2.211,5.02-3.03,5.02-3.03c0.46-0.471,0.58-0.782,0-1.281c0,0-1.18-1.1-5.02-3.1  c-3.8-1.98-5.37-2.31-5.37-2.31C11.656,11.256,11.316,11.426,11.176,12.046z"/>
		</symbol>
		<symbol id="graph_text">
			<path d="M142.7,6.3L142.4,8h5.7c-0.8,1.6-1.7,2.9-2.1,3.2c-0.4,0.1-0.9,0.2-1.3,0.4l0-0.3h-1.9l-2.9,13.2h2l0.1-0.3 l2.3-10.3c0.4-0.4,0.7-0.6,1-0.7c0.3-0.1,1.1-0.2,1.8-0.2c0,0,0.1,0,0.1,0h3.3c0.7,0,0.7,0.2,0.7,0.6c0,0.1,0,0.2,0,0.3l-2.2,10.7 h2l2.2-10.3c0.1-0.4,0.2-0.8,0.2-1.2c0-0.6-0.2-1.1-0.6-1.5c-0.4-0.3-1-0.5-1.6-0.5h-2.5c0.2-0.2,0.4-0.5,0.6-0.9 c0.4-0.6,0.8-1.4,1.1-2.2h5.2l0.1-0.3l0.3-1.4H142.7z M52.7,5.4c-0.5,0-1.6,0.1-2.1,0.3c0-0.1,0-0.2,0-0.3h-2.1l-4.9,22.3 c-0.1,0.6-0.3,0.8-0.5,0.8h-1l-0.4,1.9h2c0.5,0,1.6-0.3,1.9-2l1.4-6.5H50l-1.3,5.9c-0.1,0.4-0.1,0.7-0.4,0.7H47l-0.4,1.9h1.8 c0.4,0,1.9,0.2,2.3-1.9l4.6-21C55.6,5.9,53.9,5.4,52.7,5.4z M50.4,20h-3.1l1.2-5.4h3.1L50.4,20z M53.1,7.9l-1,4.8h-3.1L50,7.8 c0.3-0.3,1.4-0.5,1.7-0.5C52,7.3,53.2,7.5,53.1,7.9z M132.5,16.8l0.1-0.4h-2.1l-0.1,0.2c-0.6,2-1.6,3.6-2.5,4.7 c-0.9,1.1-1.6,1.8-1.6,1.8l-0.1,0.1l-0.5,2.8l0.6-0.4C126.4,25.7,131.2,22.8,132.5,16.8z M150.6,28.4c-0.8-0.7-2.5-2.5-3.7-5.8 l-0.1-0.2h-0.3l1.8-8h-2.1l-1.8,7.8c0,0.1-0.2,0.6-0.6,1.3c-0.5,0.8-1.3,1.9-2.5,2.9c-1.2,1-2.4,1.5-3.3,1.8 c-0.9,0.3-1.4,0.3-1.4,0.3l-0.2,0l-0.6,2l0.5,0c0,0,6-0.3,9.3-5.8c2.3,4.8,4.5,5.8,4.6,5.8l0.3,0.1l0.9-1.6l-0.2-0.2 C151.1,28.7,150.9,28.6,150.6,28.4z M79.6,10.9l1.7-0.9c0,0-0.9-1.1-1.9-2.7c-0.9-1.5-1-1.9-1-1.9l-2.2,0c0,0,0.8,1.6,1.2,2.3 C77.8,8.4,79.6,10.9,79.6,10.9z M112.6,22l0.1-0.3l2.9-12.9c0.6-0.6,1.3-0.9,2.1-0.9h4.7c0.1,0,0.1,0,0.1,0c0.5,0,0.7,0.1,0.9,0.2 c0.2,0.1,0.2,0.3,0.2,0.6c0,0.1,0,0.3-0.1,0.5L120.6,22h2.1l2.9-12.9c0.1-0.3,0.1-0.6,0.1-0.8c0-0.7-0.3-1.2-0.9-1.6 c-0.6-0.3-1.3-0.5-2.3-0.5c-0.1,0-0.2,0-0.2,0H118c-0.2,0-0.3,0-0.4,0c-0.7,0-1.2,0-1.6,0.2l0-0.3h-1.9L110.4,22L112.6,22 L112.6,22z M108.3,8.4l0.7-3.1h-2l-0.7,3.3h2L108.3,8.4z M117.5,28.3c0,0,0-0.1,0-0.2l1.8-9.6h-0.9l1.8-9.2h-2.2l-1.9,9.5 c-0.1,0.2-0.4,1.2-1.2,2.6c-0.8,1.5-2.1,3.3-3.7,4.5c-1.6,1.2-2.9,1.9-3.8,2.3c-0.4,0.2-0.8,0.3-1,0.4c-0.2,0.1-0.3,0.1-0.3,0.1 l-0.2,0l-0.6,2l0.5-0.1c0,0,6.3-1,10.1-6.6l-0.9,4.2c-0.1,0.3-0.1,0.5-0.1,0.8c0,0.5,0.1,0.9,0.5,1.2c0.3,0.3,0.8,0.4,1.3,0.4h7 l0.1-0.3l0.3-1.6h-6.2C117.6,28.7,117.5,28.6,117.5,28.3z M94.5,16.4H89l1.7-7.5h-2.2l-1.7,7.5h-5.6l-0.5,1.9h5.6l-2.7,12.2h2.2 l2.7-12.3H94L94.5,16.4z M140.1,18.3l0.4-0.5l-2.6,0l-2.4,3.2l1.2-5.8l4.3,0l0.4-1.7h-4.6l0.5-2.7h4.4l0.1-0.3l0.3-1.6l-4.4,0 l0.7-3.5h-2.1l-1.7,8h-2.3l1.3-6.2h-2.1l-1.3,6.2h-3.2l-0.4,1.7h7.9l-1.7,8.2h0.8c-1.7,2.2-3.6,3.5-5,4.2 c-0.8,0.4-1.5,0.6-1.9,0.8c-0.5,0.1-0.7,0.2-0.7,0.2l-0.2,0l-0.4,1.9l0.4,0c0.1,0,5.7-0.1,10.6-7 C137.9,21.3,140.1,18.3,140.1,18.3z M108,19.7L108,19.7l2.3,0.1l-0.4-0.5c0,0-0.3-0.4-0.7-1.1c-0.4-0.7-0.8-1.5-1.1-2.4l-0.1-0.2 l-0.7,0l2.7-3c0,0,1.1-1,1.1-2c0-0.3-0.2-0.7-0.5-0.9c-0.3-0.2-0.8-0.3-1.5-0.3H102l-0.4,1.8h7l-8,8.7l-0.9,3.6l4.7-4.9l-2.7,12 h2.2l0.1-0.3l2.7-12.6C107.4,19.1,108,19.6,108,19.7z M95.3,28.2l3.9-18.4C99.4,8,99.9,6,96.2,6H85.1l-0.4,1.8h10.1 c2.2,0,2.3,0.8,1.9,2.4l-3.9,18.3c-0.2,1.1,0.1,1.9,2,1.9c0.1,0,4.1,0,4.5,0l0.5-1.8l-4,0C95.4,28.7,95.1,28.6,95.3,28.2z M73.7,5.6h-2.3c-1,1.3-3,3.4-4.2,4h-1.5c0.3-0.5,2-4,2-4h-2.4l-2,3.9c-1.4-1-2-2.6-2.5-3.9h-2.6c0.3,0.9,0.9,2.9,2,3.9h-3.5 l-0.5,1.9H62c-0.4,0.6-0.7,1.1-1.2,1.7H55l-0.5,1.9h4.6c-1.5,1.5-3.5,2.8-5.1,2.8l-0.5,2.1c0,0,2.5-0.5,3.7-1.1l-0.7,3.3 c-0.2,1,0,1.7,1,1.7l9.7,0c0.8,0,1,0.5,0.8,1.4l-0.6,2.1c-0.3,1-0.8,1.6-1.6,1.6h-8.7l-0.6,1.8h8.9c2,0,3.5-0.2,4-2.4l1.1-4.8 c0.2-0.7-0.5-1.3-1.1-1.3l0.6-3.1c0.5,0.4,1.1,0.7,1.7,0.9l0.7-1.5c-1.3-0.6-2.8-2-3.2-3.3H73l0.5-1.9h-10l1-1.6h8.1l0.4-1.9h-2.8 C71.6,8.3,72.7,7,73.7,5.6z M67.8,20l-0.4,1.8h-8.7l0.7-3H67C68.2,18.8,67.9,19.7,67.8,20z M67,15c0.1,0.4,0.8,1.7,1.1,1.9h-8 c0.7-0.6,1.5-1.4,1.9-1.9L67,15z M77.2,28.4l2.8-13.3c0.2-1.1-0.4-2.2-1.7-2.2H75l-0.4,1.9h2.5c0.6,0,0.7,0.4,0.6,0.8l-2.7,12.9 c-0.3,1.5,0.5,2,2.2,2h3.7l0.5-1.7h-3.7C77.3,28.8,77.1,28.7,77.2,28.4z M66.8,25.4H53.7l-0.4,1.5h13.1L66.8,25.4z"/>
		</symbol>
		<symbol id="graph_text_small">
			<path d="M121.714,13.21l0.31-0.4h-2.08l-1.949,2.52l0.949-4.6h3.5l0.32-1.38h-3.699l0.449-2.1h3.551l0.049-0.2  l0.271-1.24h-3.56l0.58-2.8h-1.701l-1.33,6.34h-1.889l1.039-4.91h-1.66l-1.039,4.91h-2.58l-0.32,1.38h6.33l-1.41,6.52h0.33h0.311  c-1.391,1.771-2.881,2.78-4.051,3.36c-0.63,0.31-1.17,0.49-1.55,0.6c-0.37,0.1-0.58,0.12-0.58,0.12l-0.19,0.03l-0.289,1.479h0.319  c0.05,0,4.57-0.09,8.5-5.54C119.873,15.6,121.703,13.22,121.714,13.21z M123.783,3.71l-0.279,1.35h4.609  c-0.64,1.24-1.35,2.26-1.67,2.49c-0.34,0.12-0.709,0.17-1.05,0.32l-0.01-0.24h-1.56l-2.34,10.43h1.639l0.041-0.199l1.82-8.19  c0.289-0.31,0.569-0.5,0.81-0.59c0.22-0.09,0.909-0.17,1.489-0.16h0.09h2.66c0.541,0.03,0.551,0.16,0.59,0.45  c0,0.08-0.01,0.16-0.029,0.26l-1.79,8.471h1.64l1.75-8.141c0.09-0.33,0.141-0.64,0.141-0.93c0.01-0.48-0.16-0.9-0.5-1.16  c-0.33-0.26-0.78-0.37-1.311-0.37h-2.029c0.14-0.19,0.289-0.43,0.459-0.7c0.301-0.5,0.611-1.1,0.92-1.74h4.191l0.039-0.21l0.24-1.14  H123.783z M95.854,14.31l0.08,0.08l1.78-0.02l-0.3-0.4c0,0-0.25-0.34-0.561-0.85c-0.3-0.52-0.66-1.21-0.859-1.88l-0.051-0.2  l-0.56,0.03l2.149-2.37c-0.01-0.02,0.881-0.77,0.92-1.58c0-0.26-0.139-0.55-0.43-0.7c-0.279-0.16-0.66-0.24-1.209-0.24h-5.82  l-0.291,1.43h5.641l-6.439,6.86l-0.711,2.86l3.82-3.9l-2.141,9.48h1.74l0.041-0.2l2.219-9.96  C95.363,13.86,95.834,14.29,95.854,14.31z M130.164,21.229c-0.62-0.549-2.021-1.989-2.99-4.62l-0.07-0.17h-0.24l1.431-6.36h-1.72  l-1.431,6.17c-0.021,0.08-0.159,0.48-0.5,1.05c-0.38,0.641-1.03,1.48-2.05,2.27c-1.01,0.771-1.96,1.201-2.65,1.44  c-0.699,0.23-1.119,0.271-1.119,0.271l-0.181,0.02l-0.47,1.59l0.37-0.01c0.03-0.01,4.85-0.23,7.5-4.63  c1.84,3.819,3.64,4.56,3.7,4.58l0.22,0.09l0.72-1.3l-0.189-0.13C130.494,21.49,130.373,21.41,130.164,21.229z M103.484,21.11  l0.01-0.12l1.479-7.61h-0.71l1.49-7.27h-1.76l-1.49,7.49c-0.051,0.13-0.35,0.97-0.96,2.03c-0.65,1.16-1.66,2.58-3.011,3.6  c-1.289,0.961-2.319,1.511-3.029,1.811c-0.35,0.15-0.62,0.25-0.801,0.3c-0.18,0.05-0.26,0.06-0.26,0.06l-0.16,0.031L93.824,23  l0.41-0.06c0.029-0.01,5.039-0.771,8.149-5.24l-0.71,3.35c-0.051,0.23-0.07,0.43-0.07,0.62c0,0.38,0.1,0.71,0.37,0.931  c0.271,0.219,0.63,0.299,1.08,0.299h5.649l0.041-0.199l0.289-1.24h-4.969C103.594,21.44,103.494,21.351,103.484,21.11z   M99.533,16.16l0.041-0.2l2.319-10.25c0.511-0.5,1.04-0.73,1.65-0.73h3.76h0.101c0.369-0.01,0.6,0.07,0.729,0.17s0.2,0.23,0.2,0.48  c0,0.12-0.02,0.26-0.061,0.42l-2.289,10.11h1.729l2.3-10.25c0.051-0.22,0.09-0.44,0.09-0.65c0.01-0.53-0.24-0.99-0.699-1.25  c-0.451-0.27-1.07-0.39-1.851-0.39h-0.2h-3.5h-0.35c-0.53,0.01-0.98,0.01-1.33,0.17l-0.02-0.21h-1.551l-2.8,12.58H99.533z   M96.074,5.43L96.613,3h-1.569l-0.58,2.63h1.569L96.074,5.43z M115.604,12.07l0.07-0.31h-1.7l-0.05,0.18  c-0.45,1.55-1.29,2.84-2.02,3.75c-0.721,0.9-1.32,1.4-1.32,1.4l-0.08,0.06l-0.36,2.221l0.49-0.29  C110.654,19.06,114.484,16.76,115.604,12.07z M85.584,21.04l3.15-14.55c0.219-1.38,0.609-2.96-2.351-2.96h-8.94l-0.35,1.44h8.141  c1.789,0,1.819,0.65,1.56,1.91l-3.16,14.51c-0.16,0.881,0.06,1.49,1.569,1.49c0.101,0,3.291-0.04,3.601-0.01l0.38-1.439h-3.22  C85.684,21.431,85.504,21.38,85.584,21.04z M73.004,7.4l1.36-0.69c0,0-0.75-0.91-1.53-2.15c-0.7-1.17-0.84-1.54-0.84-1.54h-1.74  c0,0,0.65,1.28,0.96,1.81C71.534,5.35,73.004,7.4,73.004,7.4z M84.943,11.71h-4.39l1.34-5.92h-1.75l-1.35,5.94h-4.51l-0.38,1.48  h4.52l-2.14,9.68h1.81l2.15-9.729h4.32L84.943,11.71z M51.624,5.01l-0.83,3.79h-2.47l0.84-3.87c0.28-0.26,1.16-0.37,1.4-0.37  C50.794,4.56,51.714,4.65,51.624,5.01z M49.524,14.54h-2.48l0.93-4.3h2.47L49.524,14.54z M51.324,3.03c-0.41,0-1.3,0.05-1.72,0.27  c-0.01-0.07,0.02-0.17,0.03-0.25h-1.73l-3.97,17.69c-0.1,0.5-0.26,0.61-0.4,0.61h-0.84l-0.35,1.52h1.62c0.37,0,1.26-0.25,1.56-1.59  l1.14-5.15h2.52l-1.02,4.67c-0.06,0.29-0.11,0.551-0.31,0.551h-1.13l-0.33,1.52h1.45c0.33,0,1.51,0.14,1.86-1.51l3.69-16.601  C53.704,3.38,52.334,3.03,51.324,3.03z M62.854,10.59c0.06,0.33,0.64,1.33,0.86,1.52h-6.48c0.59-0.43,1.18-1.09,1.54-1.52H62.854z   M63.524,14.58L63.234,16h-7.02l0.54-2.38h6.07C63.804,13.62,63.574,14.32,63.524,14.58z M68.214,3.16h-1.87  c-0.83,1.06-2.43,2.72-3.42,3.13h-1.19c0.25-0.4,1.62-3.13,1.62-3.13h-1.93l-1.6,3.06c-1.14-0.76-1.63-2.03-2.03-3.06h-2.06  c0.26,0.75,0.73,2.3,1.64,3.07h-2.85l-0.36,1.52h4.65c-0.3,0.46-0.56,0.87-0.97,1.31h-4.67l-0.36,1.46h3.72  c-1.2,1.23-2.85,2.18-4.14,2.18l-0.37,1.64c0,0,1.99-0.36,2.98-0.85l-0.57,2.59c-0.18,0.78,0.03,1.351,0.82,1.351h7.81  c0.62,0,0.79,0.439,0.64,1.079l-0.45,1.69c-0.23,0.82-0.62,1.26-1.32,1.26h-6.98l-0.48,1.391h7.16c1.62,0,2.78-0.141,3.22-1.931  l0.87-3.82c0.13-0.56-0.38-1.02-0.9-1.02l0.49-2.47c0.4,0.3,0.91,0.58,1.39,0.72l0.58-1.17c-1.03-0.49-2.24-1.56-2.56-2.63h2.99  l0.37-1.52h-8.01l0.82-1.29h6.55l0.36-1.48h-2.29C66.554,5.34,67.434,4.27,68.214,3.16z M62.704,18.86h-10.54l-0.36,1.209h10.54  L62.704,18.86z M71.024,21.26l2.24-10.51c0.18-0.87-0.35-1.76-1.39-1.76h-2.58l-0.35,1.48h2.02c0.44,0,0.54,0.29,0.46,0.64  l-2.2,10.23c-0.26,1.21,0.43,1.56,1.74,1.56h2.96l0.41-1.319h-3.01C71.114,21.58,70.974,21.479,71.024,21.26z" />
		</symbol>
		<symbol id="graph_slogan">
			<path d="M48.364,29.09l2.88,2.31l0.01,0.011l-0.01,0.01l-0.18,0.84  L50.734,32l-2.52-2.021l-0.03-0.029L48.364,29.09z M48.364,27.069c-0.03,0.061-0.04,0.101-0.44,0.701l-1.52,7.06h-0.71l1.27-5.851  c-0.94,1.021-2.4,2.211-4.62,3.221l0.17-0.801c3.78-1.84,4.82-3.799,5.07-4.33h-4.25l0.16-0.709h8.73l-0.15,0.709H48.364z   M70.194,32.819h-0.71l0.66-3.069c0.03-0.09-0.05-0.19-0.15-0.19h-5.01c-0.08,0-0.14,0.051-0.16,0.131l-0.67,3.129h-0.71l0.75-3.469  c0.07-0.291,0.32-0.5,0.62-0.5h2.96l1.35-1.131c0.05-0.039,0.02-0.14-0.05-0.14h-3.23c-0.75,0.64-1.72,1.36-2.83,1.989l0.18-0.85  c1.57-0.97,2.79-2.08,3.44-2.72h0.89c-0.15,0.16-0.45,0.47-0.88,0.88h2.74c0.59,0,0.85,0.74,0.4,1.11l-1.02,0.86h1.5  c0.4,0,0.7,0.379,0.62,0.77L70.194,32.819z M66.674,32.729l-0.12,0.131c-1.02,1.1-2.59,1.789-4.66,2.06l0.16-0.72  c3.87-0.53,4.68-2.49,4.85-3.311V30.86l0.19-0.881h0.71l-0.2,0.9c-0.09,0.471-0.27,0.88-0.48,1.221c0.67,0.39,2.97,1.56,3.84,2.14  L70.824,35C69.974,34.431,67.324,33.12,66.674,32.729z M84.354,28.64h-1.029c-0.33,0.851-0.951,2.101-1.301,2.811  c-0.01,0.029-0.01,0.07,0.021,0.09l0.64,0.71c0.891-1.22,1.57-2.851,1.74-3.51C84.443,28.69,84.404,28.64,84.354,28.64z   M85.244,28.271c-0.01,0.049-0.23,1.239-0.95,2.64c-0.271,0.54-0.82,1.38-1.171,1.83l0.881,0.95l-0.26,0.869l-1.121-1.209  c-0.739,0.799-1.359,1.08-2.309,1.5l0.17-0.801c0.789-0.4,1.18-0.59,1.709-1.18l-0.97-1.061c-0.04-0.039-0.05-0.119-0.021-0.18  l0.061-0.109c0.359-0.701,1-1.99,1.35-2.881h-1.17l0.36-0.709h1.08c0.41-1.061,0.7-1.91,0.71-1.931h0.7  c-0.021,0.069-0.3,0.89-0.69,1.931h1.51c0.101,0,0.17,0.09,0.16,0.189L85.244,28.271z M88.744,29.04  c-0.021,0.01-0.03,0.029-0.03,0.05l-0.271,0.9h1.631l-0.15,0.7h-1.641l-0.84,2.949c-0.119,0.381-0.25,1.141-1.59,1.18h-1.34  l0.15-0.709h1.3c0.239,0,0.64-0.021,0.78-0.51l0.84-2.91h-2.18l0.149-0.7h2.181l0.33-1.16c0.01-0.04,0.029-0.07,0.049-0.09  l1.5-1.521c0.051-0.039,0.021-0.13-0.049-0.13h-3.381l0.15-0.71h3.539c0.58,0,0.851,0.73,0.4,1.11L88.744,29.04z M103.123,27.61  h-1.479c-0.069,0-0.13,0.05-0.149,0.119l-0.49,2.261h1.8l0.47-2.19C103.304,27.7,103.224,27.61,103.123,27.61z M100.854,30.69  l-0.539,2.51c-0.021,0.1,0.049,0.199,0.149,0.199h1.479c0.07,0,0.141-0.06,0.15-0.129l0.561-2.58H100.854z M102.703,33.729  c-0.049,0.221-0.239,0.371-0.459,0.371h-2.25c-0.301,0-0.521-0.271-0.461-0.57l1.36-6.26c0.04-0.221,0.229-0.371,0.46-0.371h2.24  c0.3,0,0.52,0.281,0.46,0.57L102.703,33.729z M109.144,28.71h-1.239l-1.051,4.92c-0.08,0.301-0.23,1.189-1.67,1.189h-1.439  l0.16-0.709h1.5c0.479,0,0.649-0.24,0.75-0.551l1.049-4.85l-2.76,0.01l0.15-0.71l2.76-0.01l0.43-2h0.711l-0.43,2h1.229  L109.144,28.71z M105.953,31.51l-0.529,0.601l-1.09-1.9l0.529-0.59L105.953,31.51z M122.123,29.229l-1.409-1.959l0.489-0.541  l1.41,1.971l-0.479,0.52L122.123,29.229z M128.344,29.99l-0.15,0.7h-2.979l-0.67,3.1c-0.04,0.22,0.021,0.32,0.29,0.32h1.26  c0.62,0,0.74-0.44,0.75-0.521l0.25-1.13h0.7l-0.271,1.25c-0.25,1.01-1.05,1.109-1.869,1.109h-1.121c-0.56,0-0.819-0.43-0.699-0.989  l0.67-3.14h-1.76c-0.09,0.369-0.25,0.89-0.57,1.459c-0.53,0.961-1.6,2.221-3.68,2.771l0.16-0.739c1.319-0.4,2.289-1.16,2.91-2.261  c0.26-0.479,0.399-0.92,0.479-1.229h-2.64l0.16-0.7h3.979l0.81-3.99h0.7l-0.8,3.99H128.344z M125.693,28.83l2.16-2.101l0.45,0.44  l-2.16,2.11L125.693,28.83z"/>
		</symbol>
	</defs>
	<svg id="logo_white" x="0" y="0" width="158" height="36" viewBox="0 0 158 36">
		<use xlink:href="#graph_blue" class="graph_blue" fill="url(#gradient_blue)" x="0" y="0"></use>
		<use xlink:href="#graph_orange" class="graph_orange" fill="url(#gradient_orange)" x="0" y="0"></use>
		<use xlink:href="#graph_green" class="graph_green" fill="url(#gradient_green)" x="0" y="0"></use>
		<use xlink:href="#graph_white" class="graph_white" fill="#fff" x="0" y="0"></use>
		<use xlink:href="#graph_text_small" class="graph_text" fill="#fff" x="0" y="0"></use>
		<use xlink:href="#graph_slogan" class="graph_text" fill="#fff" x="0" y="0"></use>
	</svg>
	
	<svg id="logo_black" x="0" y="36" width="158" height="36" viewBox="0 0 158 36">
		<use xlink:href="#graph_blue" class="graph_blue" fill="url(#gradient_blue)" x="0" y="0"></use>
		<use xlink:href="#graph_orange" class="graph_orange" fill="url(#gradient_orange)" x="0" y="0"></use>
		<use xlink:href="#graph_green" class="graph_green" fill="url(#gradient_green)" x="0" y="0"></use>
		<use xlink:href="#graph_white" class="graph_white" fill="#fff" x="0" y="0"></use>
		<use xlink:href="#graph_text_small" class="graph_text" fill="#414347" x="0" y="0"></use>
		<use xlink:href="#graph_slogan" class="graph_text" fill="#414347" x="0" y="0"></use>
	</svg>
	
	<svg id="logo_bubble" x="0" y="72"  width="186" height="69" viewBox="0 0 186 69">
		<ellipse fill="#FF920B" cx="8.181" cy="18.372" rx="8.181" ry="8.131" opacity=".502"/>
		<ellipse fill="#70DF00" cx="15.247" cy="54.725" rx="3.321" ry="3.278" opacity=".502"/>
		<ellipse fill="#70DF00" cx="65.942" cy="66.914" rx="2.113" ry="2.086" opacity=".502"/>
		<ellipse fill="#FF920B" cx="101.217" cy="56.1" rx="2.113" ry="2.086" opacity=".502"/>
		<ellipse fill="#44BFFB" cx="137.789" cy="65.164" rx="3.32" ry="3.278" opacity=".502"/>
		<ellipse fill="#44BFFB" cx="101.874" cy="11.945" rx="2.113" ry="2.086" opacity=".502"/>
		<ellipse fill="#44BFFB" cx="179.51" cy="6.408" rx="6.49" ry="6.408" opacity=".502"/>
	</svg>

</svg>